<mxfile host="app.diagrams.net" agent="Mozilla/5.0 (Windows NT 10.0; Win64; x64) AppleWebKit/537.36 (KHTML, like Gecko) Chrome/129.0.0.0 Safari/537.36" version="24.7.16">
  <diagram id="C5RBs43oDa-KdzZeNtuy" name="Page-1">
    <mxGraphModel dx="1877" dy="1740" grid="1" gridSize="10" guides="1" tooltips="1" connect="1" arrows="1" fold="1" page="1" pageScale="1" pageWidth="827" pageHeight="1169" math="0" shadow="0">
      <root>
        <mxCell id="WIyWlLk6GJQsqaUBKTNV-0" />
        <mxCell id="WIyWlLk6GJQsqaUBKTNV-1" parent="WIyWlLk6GJQsqaUBKTNV-0" />
        <mxCell id="sFm-YpRzGea-GavigfYg-17" value="callBack, board" style="edgeStyle=orthogonalEdgeStyle;rounded=0;orthogonalLoop=1;jettySize=auto;html=1;" edge="1" parent="WIyWlLk6GJQsqaUBKTNV-1" source="WIyWlLk6GJQsqaUBKTNV-11" target="sFm-YpRzGea-GavigfYg-0">
          <mxGeometry relative="1" as="geometry" />
        </mxCell>
        <mxCell id="WIyWlLk6GJQsqaUBKTNV-11" value="Main" style="rounded=1;whiteSpace=wrap;html=1;fontSize=12;glass=0;strokeWidth=1;shadow=0;" parent="WIyWlLk6GJQsqaUBKTNV-1" vertex="1">
          <mxGeometry x="200" y="-100" width="130" height="50" as="geometry" />
        </mxCell>
        <mxCell id="sFm-YpRzGea-GavigfYg-0" value="ui.run" style="rounded=1;whiteSpace=wrap;html=1;fontSize=12;glass=0;strokeWidth=1;shadow=0;" vertex="1" parent="WIyWlLk6GJQsqaUBKTNV-1">
          <mxGeometry x="200" width="130" height="50" as="geometry" />
        </mxCell>
        <mxCell id="sFm-YpRzGea-GavigfYg-1" value="board.draw" style="rounded=1;whiteSpace=wrap;html=1;fontSize=12;glass=0;strokeWidth=1;shadow=0;" vertex="1" parent="WIyWlLk6GJQsqaUBKTNV-1">
          <mxGeometry x="-10" y="490" width="130" height="50" as="geometry" />
        </mxCell>
        <mxCell id="sFm-YpRzGea-GavigfYg-2" value="callBack" style="rounded=1;whiteSpace=wrap;html=1;fontSize=12;glass=0;strokeWidth=1;shadow=0;" vertex="1" parent="WIyWlLk6GJQsqaUBKTNV-1">
          <mxGeometry x="260" y="170" width="130" height="50" as="geometry" />
        </mxCell>
        <mxCell id="sFm-YpRzGea-GavigfYg-3" value="readFile" style="rounded=1;whiteSpace=wrap;html=1;fontSize=12;glass=0;strokeWidth=1;shadow=0;" vertex="1" parent="WIyWlLk6GJQsqaUBKTNV-1">
          <mxGeometry x="470" y="280" width="130" height="50" as="geometry" />
        </mxCell>
        <mxCell id="sFm-YpRzGea-GavigfYg-4" value="draw" style="rounded=1;whiteSpace=wrap;html=1;fontSize=12;glass=0;strokeWidth=1;shadow=0;" vertex="1" parent="WIyWlLk6GJQsqaUBKTNV-1">
          <mxGeometry x="-10" y="390" width="130" height="50" as="geometry" />
        </mxCell>
        <mxCell id="sFm-YpRzGea-GavigfYg-5" value="Main" style="rounded=1;whiteSpace=wrap;html=1;fontSize=12;glass=0;strokeWidth=1;shadow=0;" vertex="1" parent="WIyWlLk6GJQsqaUBKTNV-1">
          <mxGeometry x="610" y="330" width="130" height="50" as="geometry" />
        </mxCell>
        <mxCell id="sFm-YpRzGea-GavigfYg-6" value="Main" style="rounded=1;whiteSpace=wrap;html=1;fontSize=12;glass=0;strokeWidth=1;shadow=0;" vertex="1" parent="WIyWlLk6GJQsqaUBKTNV-1">
          <mxGeometry x="620" y="340" width="130" height="50" as="geometry" />
        </mxCell>
        <mxCell id="sFm-YpRzGea-GavigfYg-7" value="Main" style="rounded=1;whiteSpace=wrap;html=1;fontSize=12;glass=0;strokeWidth=1;shadow=0;" vertex="1" parent="WIyWlLk6GJQsqaUBKTNV-1">
          <mxGeometry x="630" y="350" width="130" height="50" as="geometry" />
        </mxCell>
        <mxCell id="sFm-YpRzGea-GavigfYg-8" value="Main" style="rounded=1;whiteSpace=wrap;html=1;fontSize=12;glass=0;strokeWidth=1;shadow=0;" vertex="1" parent="WIyWlLk6GJQsqaUBKTNV-1">
          <mxGeometry x="640" y="360" width="130" height="50" as="geometry" />
        </mxCell>
        <mxCell id="sFm-YpRzGea-GavigfYg-9" value="Main" style="rounded=1;whiteSpace=wrap;html=1;fontSize=12;glass=0;strokeWidth=1;shadow=0;" vertex="1" parent="WIyWlLk6GJQsqaUBKTNV-1">
          <mxGeometry x="650" y="370" width="130" height="50" as="geometry" />
        </mxCell>
        <mxCell id="sFm-YpRzGea-GavigfYg-10" value="Main" style="rounded=1;whiteSpace=wrap;html=1;fontSize=12;glass=0;strokeWidth=1;shadow=0;" vertex="1" parent="WIyWlLk6GJQsqaUBKTNV-1">
          <mxGeometry x="660" y="380" width="130" height="50" as="geometry" />
        </mxCell>
        <mxCell id="sFm-YpRzGea-GavigfYg-11" value="Main" style="rounded=1;whiteSpace=wrap;html=1;fontSize=12;glass=0;strokeWidth=1;shadow=0;" vertex="1" parent="WIyWlLk6GJQsqaUBKTNV-1">
          <mxGeometry x="670" y="390" width="130" height="50" as="geometry" />
        </mxCell>
        <mxCell id="sFm-YpRzGea-GavigfYg-12" value="Main" style="rounded=1;whiteSpace=wrap;html=1;fontSize=12;glass=0;strokeWidth=1;shadow=0;" vertex="1" parent="WIyWlLk6GJQsqaUBKTNV-1">
          <mxGeometry x="680" y="400" width="130" height="50" as="geometry" />
        </mxCell>
        <mxCell id="sFm-YpRzGea-GavigfYg-13" value="Main" style="rounded=1;whiteSpace=wrap;html=1;fontSize=12;glass=0;strokeWidth=1;shadow=0;" vertex="1" parent="WIyWlLk6GJQsqaUBKTNV-1">
          <mxGeometry x="690" y="410" width="130" height="50" as="geometry" />
        </mxCell>
        <mxCell id="sFm-YpRzGea-GavigfYg-14" value="Main" style="rounded=1;whiteSpace=wrap;html=1;fontSize=12;glass=0;strokeWidth=1;shadow=0;" vertex="1" parent="WIyWlLk6GJQsqaUBKTNV-1">
          <mxGeometry x="700" y="420" width="130" height="50" as="geometry" />
        </mxCell>
        <mxCell id="sFm-YpRzGea-GavigfYg-15" value="piece.getPossibleMoves" style="rounded=1;whiteSpace=wrap;html=1;fontSize=12;glass=0;strokeWidth=1;shadow=0;" vertex="1" parent="WIyWlLk6GJQsqaUBKTNV-1">
          <mxGeometry x="414" y="570" width="130" height="50" as="geometry" />
        </mxCell>
        <mxCell id="sFm-YpRzGea-GavigfYg-16" value="move" style="rounded=1;whiteSpace=wrap;html=1;fontSize=12;glass=0;strokeWidth=1;shadow=0;" vertex="1" parent="WIyWlLk6GJQsqaUBKTNV-1">
          <mxGeometry x="414" y="450" width="130" height="50" as="geometry" />
        </mxCell>
        <mxCell id="sFm-YpRzGea-GavigfYg-18" value="piece.draw" style="rounded=1;whiteSpace=wrap;html=1;fontSize=12;glass=0;strokeWidth=1;shadow=0;" vertex="1" parent="WIyWlLk6GJQsqaUBKTNV-1">
          <mxGeometry x="150" y="490" width="130" height="50" as="geometry" />
        </mxCell>
        <mxCell id="sFm-YpRzGea-GavigfYg-20" value="gout.draw..." style="rounded=1;whiteSpace=wrap;html=1;fontSize=12;glass=0;strokeWidth=1;shadow=0;" vertex="1" parent="WIyWlLk6GJQsqaUBKTNV-1">
          <mxGeometry x="-170" y="490" width="130" height="50" as="geometry" />
        </mxCell>
        <mxCell id="sFm-YpRzGea-GavigfYg-21" value="" style="endArrow=classic;html=1;rounded=0;entryX=0.75;entryY=0;entryDx=0;entryDy=0;exitX=0.358;exitY=0.94;exitDx=0;exitDy=0;exitPerimeter=0;" edge="1" parent="WIyWlLk6GJQsqaUBKTNV-1" source="sFm-YpRzGea-GavigfYg-4" target="sFm-YpRzGea-GavigfYg-20">
          <mxGeometry width="50" height="50" relative="1" as="geometry">
            <mxPoint x="40" y="450" as="sourcePoint" />
            <mxPoint x="10" y="490" as="targetPoint" />
          </mxGeometry>
        </mxCell>
        <mxCell id="sFm-YpRzGea-GavigfYg-22" value="" style="endArrow=classic;html=1;rounded=0;entryX=0.58;entryY=0.028;entryDx=0;entryDy=0;entryPerimeter=0;" edge="1" parent="WIyWlLk6GJQsqaUBKTNV-1" target="sFm-YpRzGea-GavigfYg-1">
          <mxGeometry width="50" height="50" relative="1" as="geometry">
            <mxPoint x="70" y="440" as="sourcePoint" />
            <mxPoint x="120" y="490" as="targetPoint" />
          </mxGeometry>
        </mxCell>
        <mxCell id="sFm-YpRzGea-GavigfYg-23" value="" style="endArrow=classic;html=1;rounded=0;entryX=0.25;entryY=0;entryDx=0;entryDy=0;" edge="1" parent="WIyWlLk6GJQsqaUBKTNV-1" source="sFm-YpRzGea-GavigfYg-4" target="sFm-YpRzGea-GavigfYg-18">
          <mxGeometry width="50" height="50" relative="1" as="geometry">
            <mxPoint x="209" y="427" as="sourcePoint" />
            <mxPoint x="100" y="480" as="targetPoint" />
          </mxGeometry>
        </mxCell>
        <mxCell id="sFm-YpRzGea-GavigfYg-24" value="" style="endArrow=classic;html=1;rounded=0;entryX=0.75;entryY=0;entryDx=0;entryDy=0;exitX=0.25;exitY=1;exitDx=0;exitDy=0;" edge="1" parent="WIyWlLk6GJQsqaUBKTNV-1" source="sFm-YpRzGea-GavigfYg-2">
          <mxGeometry width="50" height="50" relative="1" as="geometry">
            <mxPoint x="169" y="337" as="sourcePoint" />
            <mxPoint x="60" y="390" as="targetPoint" />
          </mxGeometry>
        </mxCell>
        <mxCell id="sFm-YpRzGea-GavigfYg-25" value="" style="endArrow=classic;html=1;rounded=0;entryX=0.5;entryY=0;entryDx=0;entryDy=0;exitX=0.928;exitY=1.032;exitDx=0;exitDy=0;exitPerimeter=0;" edge="1" parent="WIyWlLk6GJQsqaUBKTNV-1" source="sFm-YpRzGea-GavigfYg-2" target="sFm-YpRzGea-GavigfYg-3">
          <mxGeometry width="50" height="50" relative="1" as="geometry">
            <mxPoint x="343" y="220" as="sourcePoint" />
            <mxPoint x="110" y="390" as="targetPoint" />
          </mxGeometry>
        </mxCell>
        <mxCell id="sFm-YpRzGea-GavigfYg-28" value="" style="endArrow=classic;html=1;rounded=0;" edge="1" parent="WIyWlLk6GJQsqaUBKTNV-1" source="sFm-YpRzGea-GavigfYg-3" target="sFm-YpRzGea-GavigfYg-16">
          <mxGeometry width="50" height="50" relative="1" as="geometry">
            <mxPoint x="364" y="314" as="sourcePoint" />
            <mxPoint x="390" y="450" as="targetPoint" />
          </mxGeometry>
        </mxCell>
        <mxCell id="sFm-YpRzGea-GavigfYg-29" value="" style="endArrow=classic;html=1;rounded=0;exitX=0.432;exitY=1.048;exitDx=0;exitDy=0;exitPerimeter=0;" edge="1" parent="WIyWlLk6GJQsqaUBKTNV-1" source="sFm-YpRzGea-GavigfYg-16">
          <mxGeometry width="50" height="50" relative="1" as="geometry">
            <mxPoint x="470" y="510" as="sourcePoint" />
            <mxPoint x="470" y="570" as="targetPoint" />
          </mxGeometry>
        </mxCell>
        <mxCell id="sFm-YpRzGea-GavigfYg-30" value="" style="endArrow=classic;html=1;rounded=0;" edge="1" parent="WIyWlLk6GJQsqaUBKTNV-1">
          <mxGeometry width="50" height="50" relative="1" as="geometry">
            <mxPoint x="320" y="220" as="sourcePoint" />
            <mxPoint x="430" y="450" as="targetPoint" />
          </mxGeometry>
        </mxCell>
      </root>
    </mxGraphModel>
  </diagram>
</mxfile>
